<svg id="Capa_1" enable-background="new 0 0 512 512" viewBox="0 0 512 512" xmlns="http://www.w3.org/2000/svg"><g><g><g><path d="m390.661 136.669v152.1l-43.34 185.15h-313.451v-314.4l189.36-38.18h152.1c8.471 0 15.331 6.86 15.331 15.33z" fill="#037cff"/><g><path d="m182.341 250.808-7.764 7.764c-6.482 6.482-11.076 14.606-13.291 23.501l-17.681 71.027c-2.299 9.235 6.061 17.594 15.295 15.295l71.026-17.681c8.895-2.214 17.02-6.809 23.501-13.291l7.764-7.764c2.734-2.734 2.734-7.166 0-9.9-22.984-22.984-45.967-45.967-68.951-68.951-2.733-2.734-7.165-2.734-9.899 0z" fill="#0066f9"/></g><path d="m242.897 190.252-31.487 31.488c-2.74 2.74-2.74 7.17 0 9.9l68.95 68.95c2.73 2.74 7.16 2.74 9.9 0l31.488-31.487z" fill="#0066f9"/><g fill="#229bff"><path d="m50 240.469h50v27.38c0 6.91-2.8 13.15-7.32 17.68-4.52 4.52-10.78 7.32-17.68 7.32-13.81 0-25-11.19-25-25z"/><path d="m182.92 196.339c0 13.81-11.19 25-25 25h-44.79v-50h44.79c6.9 0 13.16 2.8 17.68 7.32s7.32 10.78 7.32 17.68z"/><path d="m50 336.221v21.641c0 14.016 11.47 25.824 25.483 25.558 13.585-.257 24.517-11.349 24.517-24.995v-22.204c0-13.807-11.193-25-25-25-13.807 0-25 11.193-25 25z"/></g><path d="m213.83 219.319-7.764 7.764c-6.482 6.482-11.076 14.606-13.291 23.501l-17.681 71.026c-2.299 9.235 6.061 17.594 15.295 15.295l71.026-17.681c8.895-2.214 17.02-6.809 23.501-13.291l7.764-7.764c2.734-2.734 2.734-7.166 0-9.9-22.984-22.984-45.967-45.967-68.951-68.951-2.733-2.733-7.165-2.733-9.899.001z" fill="#ffc751"/><path d="m504.591 86.259-10.61 10.61-40.39 12.02-34.24 62.61-97.6 97.6c-2.74 2.74-7.17 2.74-9.9 0l-38.54-38.54 31.73-102.45 49.52-49.52h16.67l-2.71-13.96 57.22-57.22c8.7-8.7 22.44-9.9 32.45-2.74 6.97 4.98 15.78 12.25 26.34 22.8 10.55 10.56 17.82 19.37 22.8 26.34 7.16 10.01 5.96 23.75-2.74 32.45z" fill="#ffc751"/><path d="m341.548 214.313-.365-.365c-9.662-9.662-25.328-9.662-34.99 0l-24.749 24.75 30.404 30.404c2.732 2.732 7.161 2.734 9.895.004l19.805-19.805c9.662-9.661 9.662-25.326 0-34.988z" fill="#ffaf40"/></g><path d="m223.23 121.339h-85.53v50h85.53c4.42 0 8-3.58 8-8v-34c0-4.42-3.58-8-8-8zm28.12 340.661v50h77.94l1.37-50zm-201.35-10v-74.27h-50v118.94c0 8.47 6.86 15.33 15.33 15.33h139.62v-50h-94.95c-5.52 0-10-4.48-10-10zm332.661-171.23h-34c-4.42 0-8 3.58-8 8v61.02h50v-61.02c0-4.42-3.58-8-8-8zm-367.331-159.431c-8.47 0-15.33 6.86-15.33 15.33v65.67h50v-21c0-5.52 4.48-10 10-10h29.45v-50z" fill="#7cbaf7"/><g><path d="m89.449 171.339h48.247c13.807 0 25-11.193 25-25 0-13.807-11.193-25-25-25h-48.247c-13.807 0-25 11.193-25 25 0 13.808 11.193 25 25 25z" fill="#a9cffc"/><path d="m251.355 462h-96.408c-13.807 0-25 11.193-25 25 0 13.807 11.193 25 25 25h96.408c13.807 0 25-11.193 25-25 0-13.807-11.193-25-25-25z" fill="#48acff"/><path d="m251.355 462h-35.726c-13.807 0-25 11.193-25 25 0 13.807 11.193 25 25 25h35.726c13.807 0 25-11.193 25-25 0-13.807-11.193-25-25-25z" fill="#229bff"/><path d="m390.661 349.79v44.85h-50v-44.85c0-6.91 2.8-13.15 7.32-17.68 4.52-4.52 10.78-7.32 17.68-7.32 13.81 0 25 11.19 25 25z" fill="#48acff"/><path d="m340.661 442.15h50v54.52c0 8.47-6.86 15.33-15.33 15.33h-46.04c-6.91 0-13.15-2.8-17.68-7.32-4.52-4.52-7.32-10.78-7.32-17.68 0-13.81 11.19-25 25-25h1.37c5.52 0 10-4.48 10-10z" fill="#48acff"/><path d="m390.661 442.148v-47.505c0-13.807-11.193-25-25-25-13.807 0-25 11.193-25 25v47.505c0 13.807 11.193 25 25 25 13.807 0 25-11.193 25-25z" fill="#229bff"/><path d="m50 202.339v38.13l-50-.51v-37.62c0-6.9 2.8-13.16 7.32-17.68s10.78-7.32 17.68-7.32c13.81 0 25 11.19 25 25z" fill="#a9cffc"/><path d="m0 312.29h50v65.44c0 6.9-2.8 13.15-7.32 17.67-4.52 4.53-10.78 7.33-17.68 7.33-13.81 0-25-11.2-25-25z" fill="#a9cffc"/><path d="m0 239.963v72.328c0 13.807 11.193 25 25 25 13.807 0 25-11.193 25-25v-72.328c0-13.807-11.193-25-25-25-13.807 0-25 11.193-25 25z" fill="#cbe1ff"/></g><path d="m458.629 61.513-74.636 74.639c-9.68 9.68-9.657 25.379.047 35.035.118.118.236.235.354.353 9.672 9.624 25.305 9.611 34.953-.036l74.637-74.637c9.662-9.662 9.662-25.327 0-34.989l-.365-.365c-9.662-9.663-25.328-9.663-34.99 0z" fill="#ffaf40"/><path d="m440.026 80.117-22.195 22.195c-9.762 9.763-9.762 25.591 0 35.353 9.763 9.763 25.591 9.763 35.354 0l22.195-22.195c9.763-9.763 9.763-25.591 0-35.354-9.763-9.762-25.591-9.762-35.354.001z" fill="#ff993a"/><g><g fill="#ffe059"><path d="m389.918 113.948 13.962-13.962c9.655-9.656 9.655-25.31 0-34.965l-.392-.392c-9.655-9.655-25.31-9.655-34.966 0l-13.963 13.963c-9.683 9.683-9.64 25.382.072 35.037.118.118.236.235.355.353 9.67 9.613 25.289 9.609 34.932-.034z"/><path d="m268.23 164.919 35.36 35.35v.01l-30.28 30.28-30.41-30.41c-2.74-2.73-2.74-7.16 0-9.9z"/><path d="m340.411 163.459-28.47 28.47-35.36-35.36 28.46-28.46c9.65-9.65 25.3-9.7 34.98-.08.12.12.23.24.35.36 9.72 9.66 9.72 25.38.04 35.07z"/></g><path d="m303.595 200.274 8.341-8.342c9.671-9.671 9.664-25.351-.012-35.017-.109-.109-.218-.218-.327-.327-9.67-9.675-25.349-9.688-35.021-.015l-8.341 8.341c-9.667 9.667-9.667 25.339 0 35.006.118.118.236.236.354.354 9.667 9.667 25.34 9.667 35.006 0z" fill="#fff370"/></g><path d="m292.68 288.27-30.279-30.279-12.72 12.71c-6.48 6.48-14.6 11.08-23.5 13.29l-6.604 1.643c-11.027 2.744-17.973 13.644-15.802 24.798 2.336 12.001 14.253 19.594 26.117 16.639l31.527-7.852c8.89-2.21 17.01-6.8 23.5-13.29l7.76-7.76c2.735-2.733 2.735-7.166.001-9.899z" fill="#ffaf40"/></g><g><path d="m113.135 171.339h-53.135c-5.523 0-10 4.477-10 10v59.129c0 13.807 11.193 25 25 25 13.807 0 25-11.193 25-25v-19.129h13.134c13.807 0 25-11.193 25-25 0-13.807-11.192-25-24.999-25z" fill="#48acff"/></g><path d="m143.87 412h67.17v50h-67.17c-6.91 0-13.15-2.8-17.68-7.32-4.52-4.52-7.32-10.78-7.32-17.68 0-13.81 11.19-25 25-25z" fill="#0066f9"/><path d="m340.661 355.97v96.03c0 5.52-4.48 10-10 10h-67.52v-50h27.52v-56.03c0-13.81 11.19-25 25-25s25 11.19 25 25z" fill="#0066f9"/><path d="m263.142 412h-52.1c-13.807 0-25 11.193-25 25 0 13.807 11.193 25 25 25h52.1c13.807 0 25-11.193 25-25 0-13.807-11.193-25-25-25z" fill="#05d"/></g><g/><g/><g/><g/><g/><g/><g/><g/><g/><g/><g/><g/><g/><g/><g/></svg>